<svg width="172" height="97" viewBox="0 0 172 97" fill="none" xmlns="http://www.w3.org/2000/svg">
<path d="M0.419 15.864C0.419 12.8827 1.064 10.231 2.354 7.909C3.644 5.55833 5.43567 3.738 7.729 2.448C10.051 1.12933 12.674 0.469998 15.598 0.469998C19.1813 0.469998 22.2487 1.416 24.8 3.308C27.3513 5.2 29.057 7.78 29.917 11.048H21.833C21.231 9.78667 20.371 8.82633 19.253 8.167C18.1637 7.50767 16.9167 7.178 15.512 7.178C13.2473 7.178 11.4127 7.96633 10.008 9.543C8.60333 11.1197 7.901 13.2267 7.901 15.864C7.901 18.5013 8.60333 20.6083 10.008 22.185C11.4127 23.7617 13.2473 24.55 15.512 24.55C16.9167 24.55 18.1637 24.2203 19.253 23.561C20.371 22.9017 21.231 21.9413 21.833 20.68H29.917C29.057 23.948 27.3513 26.528 24.8 28.42C22.2487 30.2833 19.1813 31.215 15.598 31.215C12.674 31.215 10.051 30.57 7.729 29.28C5.43567 27.9613 3.644 26.141 2.354 23.819C1.064 21.497 0.419 18.8453 0.419 15.864ZM32.9579 18.96C32.9579 16.4947 33.4166 14.3303 34.3339 12.467C35.2799 10.6037 36.5556 9.17033 38.1609 8.167C39.7662 7.16367 41.5579 6.662 43.5359 6.662C45.2272 6.662 46.7036 7.006 47.9649 7.694C49.2549 8.382 50.2439 9.285 50.9319 10.403V7.006H58.2849V31H50.9319V27.603C50.2152 28.721 49.2119 29.624 47.9219 30.312C46.6606 31 45.1842 31.344 43.4929 31.344C41.5436 31.344 39.7662 30.8423 38.1609 29.839C36.5556 28.807 35.2799 27.3593 34.3339 25.496C33.4166 23.604 32.9579 21.4253 32.9579 18.96ZM50.9319 19.003C50.9319 17.1683 50.4159 15.7207 49.3839 14.66C48.3806 13.5993 47.1479 13.069 45.6859 13.069C44.2239 13.069 42.9769 13.5993 41.9449 14.66C40.9416 15.692 40.4399 17.1253 40.4399 18.96C40.4399 20.7947 40.9416 22.2567 41.9449 23.346C42.9769 24.4067 44.2239 24.937 45.6859 24.937C47.1479 24.937 48.3806 24.4067 49.3839 23.346C50.4159 22.2853 50.9319 20.8377 50.9319 19.003ZM78.2245 6.748C81.0338 6.748 83.2698 7.66533 84.9325 9.5C86.6238 11.306 87.4695 13.8 87.4695 16.982V31H80.1595V17.971C80.1595 16.3657 79.7438 15.1187 78.9125 14.23C78.0811 13.3413 76.9631 12.897 75.5585 12.897C74.1538 12.897 73.0358 13.3413 72.2045 14.23C71.3731 15.1187 70.9575 16.3657 70.9575 17.971V31H63.6045V7.006H70.9575V10.188C71.7028 9.12733 72.7061 8.296 73.9675 7.694C75.2288 7.06333 76.6478 6.748 78.2245 6.748ZM103.501 31.344C101.15 31.344 99.0291 30.8423 97.1371 29.839C95.2738 28.8357 93.7974 27.4023 92.7081 25.539C91.6474 23.6757 91.1171 21.497 91.1171 19.003C91.1171 16.5377 91.6618 14.3733 92.7511 12.51C93.8404 10.618 95.3311 9.17033 97.2231 8.167C99.1151 7.16367 101.236 6.662 103.587 6.662C105.938 6.662 108.059 7.16367 109.951 8.167C111.843 9.17033 113.334 10.618 114.423 12.51C115.512 14.3733 116.057 16.5377 116.057 19.003C116.057 21.4683 115.498 23.647 114.38 25.539C113.291 27.4023 111.786 28.8357 109.865 29.839C107.973 30.8423 105.852 31.344 103.501 31.344ZM103.501 24.98C104.906 24.98 106.095 24.464 107.07 23.432C108.073 22.4 108.575 20.9237 108.575 19.003C108.575 17.0823 108.088 15.606 107.113 14.574C106.167 13.542 104.992 13.026 103.587 13.026C102.154 13.026 100.964 13.542 100.018 14.574C99.0721 15.5773 98.5991 17.0537 98.5991 19.003C98.5991 20.9237 99.0578 22.4 99.9751 23.432C100.921 24.464 102.096 24.98 103.501 24.98ZM134.578 6.748C137.387 6.748 139.623 7.66533 141.286 9.5C142.977 11.306 143.823 13.8 143.823 16.982V31H136.513V17.971C136.513 16.3657 136.097 15.1187 135.266 14.23C134.435 13.3413 133.317 12.897 131.912 12.897C130.507 12.897 129.389 13.3413 128.558 14.23C127.727 15.1187 127.311 16.3657 127.311 17.971V31H119.958V7.006H127.311V10.188C128.056 9.12733 129.06 8.296 130.321 7.694C131.582 7.06333 133.001 6.748 134.578 6.748ZM0.204 84.003C0.204 81.509 0.705667 79.3303 1.709 77.467C2.741 75.6037 4.16 74.1703 5.966 73.167C7.80067 72.1637 9.89333 71.662 12.244 71.662C15.254 71.662 17.7623 72.4503 19.769 74.027C21.8043 75.6037 23.1373 77.8253 23.768 80.692H15.942C15.2827 78.8573 14.007 77.94 12.115 77.94C10.7677 77.94 9.69267 78.4703 8.89 79.531C8.08733 80.563 7.686 82.0537 7.686 84.003C7.686 85.9523 8.08733 87.4573 8.89 88.518C9.69267 89.55 10.7677 90.066 12.115 90.066C14.007 90.066 15.2827 89.1487 15.942 87.314H23.768C23.1373 90.1233 21.8043 92.3307 19.769 93.936C17.7337 95.5413 15.2253 96.344 12.244 96.344C9.89333 96.344 7.80067 95.8423 5.966 94.839C4.16 93.8357 2.741 92.4023 1.709 90.539C0.705667 88.6757 0.204 86.497 0.204 84.003ZM26.2392 83.96C26.2392 81.4947 26.6978 79.3303 27.6152 77.467C28.5612 75.6037 29.8368 74.1703 31.4422 73.167C33.0475 72.1637 34.8392 71.662 36.8172 71.662C38.5085 71.662 39.9848 72.006 41.2462 72.694C42.5362 73.382 43.5252 74.285 44.2132 75.403V72.006H51.5662V96H44.2132V92.603C43.4965 93.721 42.4932 94.624 41.2032 95.312C39.9418 96 38.4655 96.344 36.7742 96.344C34.8248 96.344 33.0475 95.8423 31.4422 94.839C29.8368 93.807 28.5612 92.3593 27.6152 90.496C26.6978 88.604 26.2392 86.4253 26.2392 83.96ZM44.2132 84.003C44.2132 82.1683 43.6972 80.7207 42.6652 79.66C41.6618 78.5993 40.4292 78.069 38.9672 78.069C37.5052 78.069 36.2582 78.5993 35.2262 79.66C34.2228 80.692 33.7212 82.1253 33.7212 83.96C33.7212 85.7947 34.2228 87.2567 35.2262 88.346C36.2582 89.4067 37.5052 89.937 38.9672 89.937C40.4292 89.937 41.6618 89.4067 42.6652 88.346C43.6972 87.2853 44.2132 85.8377 44.2132 84.003ZM87.5017 71.748C90.4831 71.748 92.8481 72.651 94.5967 74.457C96.3741 76.263 97.2627 78.7713 97.2627 81.982V96H89.9527V82.971C89.9527 81.423 89.5371 80.2333 88.7057 79.402C87.9031 78.542 86.7851 78.112 85.3517 78.112C83.9184 78.112 82.7861 78.542 81.9547 79.402C81.1521 80.2333 80.7507 81.423 80.7507 82.971V96H73.4407V82.971C73.4407 81.423 73.0251 80.2333 72.1937 79.402C71.3911 78.542 70.2731 78.112 68.8397 78.112C67.4064 78.112 66.2741 78.542 65.4427 79.402C64.6401 80.2333 64.2387 81.423 64.2387 82.971V96H56.8857V72.006H64.2387V75.016C64.9841 74.0127 65.9587 73.2243 67.1627 72.651C68.3667 72.049 69.7284 71.748 71.2477 71.748C73.0537 71.748 74.6591 72.135 76.0637 72.909C77.4971 73.683 78.6151 74.7867 79.4177 76.22C80.2491 74.9013 81.3814 73.8263 82.8147 72.995C84.2481 72.1637 85.8104 71.748 87.5017 71.748ZM125.023 83.616C125.023 84.304 124.98 85.0207 124.894 85.766H108.253C108.368 87.2567 108.841 88.4033 109.672 89.206C110.532 89.98 111.579 90.367 112.811 90.367C114.646 90.367 115.922 89.593 116.638 88.045H124.464C124.063 89.6217 123.332 91.0407 122.271 92.302C121.239 93.5633 119.935 94.5523 118.358 95.269C116.782 95.9857 115.019 96.344 113.069 96.344C110.719 96.344 108.626 95.8423 106.791 94.839C104.957 93.8357 103.523 92.4023 102.491 90.539C101.459 88.6757 100.943 86.497 100.943 84.003C100.943 81.509 101.445 79.3303 102.448 77.467C103.48 75.6037 104.914 74.1703 106.748 73.167C108.583 72.1637 110.69 71.662 113.069 71.662C115.391 71.662 117.455 72.1493 119.261 73.124C121.067 74.0987 122.472 75.489 123.475 77.295C124.507 79.101 125.023 81.208 125.023 83.616ZM117.498 81.681C117.498 80.4197 117.068 79.4163 116.208 78.671C115.348 77.9257 114.273 77.553 112.983 77.553C111.751 77.553 110.704 77.9113 109.844 78.628C109.013 79.3447 108.497 80.3623 108.296 81.681H117.498ZM136.255 76.005C137.115 74.6863 138.19 73.6543 139.48 72.909C140.77 72.135 142.204 71.748 143.78 71.748V79.531H141.759C139.925 79.531 138.549 79.9323 137.631 80.735C136.714 81.509 136.255 82.885 136.255 84.863V96H128.902V72.006H136.255V76.005ZM145.833 83.96C145.833 81.4947 146.292 79.3303 147.209 77.467C148.155 75.6037 149.431 74.1703 151.036 73.167C152.641 72.1637 154.433 71.662 156.411 71.662C158.102 71.662 159.579 72.006 160.84 72.694C162.13 73.382 163.119 74.285 163.807 75.403V72.006H171.16V96H163.807V92.603C163.09 93.721 162.087 94.624 160.797 95.312C159.536 96 158.059 96.344 156.368 96.344C154.419 96.344 152.641 95.8423 151.036 94.839C149.431 93.807 148.155 92.3593 147.209 90.496C146.292 88.604 145.833 86.4253 145.833 83.96ZM163.807 84.003C163.807 82.1683 163.291 80.7207 162.259 79.66C161.256 78.5993 160.023 78.069 158.561 78.069C157.099 78.069 155.852 78.5993 154.82 79.66C153.817 80.692 153.315 82.1253 153.315 83.96C153.315 85.7947 153.817 87.2567 154.82 88.346C155.852 89.4067 157.099 89.937 158.561 89.937C160.023 89.937 161.256 89.4067 162.259 88.346C163.291 87.2853 163.807 85.8377 163.807 84.003Z" fill="#1B5A7D"/>
</svg>
