<svg width="25" height="24" viewBox="0 0 25 24" fill="none" xmlns="http://www.w3.org/2000/svg">
<path d="M14.5 9.3V12.2H17.1C17.3 12.2 17.4 12.4 17.4 12.6L17 14.5C17 14.6 16.8 14.7 16.7 14.7H14.5V22H11.5V14.8H9.8C9.6 14.8 9.5 14.7 9.5 14.5V12.6C9.5 12.4 9.6 12.3 9.8 12.3H11.5V9C11.5 7.3 12.8 6 14.5 6H17.2C17.4 6 17.5 6.1 17.5 6.3V8.7C17.5 8.9 17.4 9 17.2 9H14.8C14.6 9 14.5 9.1 14.5 9.3Z" stroke="#3B3B3B" stroke-width="1.5" stroke-miterlimit="10" stroke-linecap="round"/>
<path d="M15.5 22H9.5C4.5 22 2.5 20 2.5 15V9C2.5 4 4.5 2 9.5 2H15.5C20.5 2 22.5 4 22.5 9V15C22.5 20 20.5 22 15.5 22Z" stroke="#3B3B3B" stroke-width="1.5" stroke-linecap="round" stroke-linejoin="round"/>
</svg>
