<svg width="25" height="24" viewBox="0 0 25 24" fill="none" xmlns="http://www.w3.org/2000/svg">
<path d="M22.1 10.2H12.7V13.9H18.2C18.1 14.8 17.5 16.2 16.2 17.1C15.4 17.7 14.2 18.1 12.7 18.1C10.1 18.1 7.79995 16.4 6.99995 13.9C6.79995 13.3 6.69995 12.6 6.69995 11.9C6.69995 11.2 6.79995 10.5 6.99995 9.9C7.09995 9.7 7.09995 9.5 7.19995 9.4C8.09995 7.3 10.2 5.8 12.7 5.8C14.6 5.8 15.8 6.6 16.6 7.3L19.4 4.5C17.6999 3 15.4 2 12.7 2C8.79995 2 5.39995 4.2 3.79995 7.5C3.09995 8.9 2.69995 10.4 2.69995 12C2.69995 13.6 3.09995 15.1 3.79995 16.5C5.39995 19.8 8.79995 22 12.7 22C15.4 22 17.6999 21.1 19.2999 19.6C21.1999 17.9 22.2999 15.3 22.2999 12.2C22.2999 11.4 22.2 10.8 22.1 10.2Z" stroke="#3B3B3B" stroke-width="1.5" stroke-miterlimit="10" stroke-linecap="round" stroke-linejoin="round"/>
</svg>
