<svg width="25" height="24" viewBox="0 0 25 24" fill="none" xmlns="http://www.w3.org/2000/svg">
<path d="M7.4 20.6C8.9 21.5 10.7 22 12.5 22C18 22 22.5 17.5 22.5 12C22.5 6.5 18 2 12.5 2C7 2 2.5 6.5 2.5 12C2.5 13.8 3 15.5 3.8 17L2.94044 20.306C2.74572 21.0549 3.43892 21.7317 4.18299 21.5191L7.4 20.6Z" stroke="#3B3B3B" stroke-width="1.5" stroke-miterlimit="10" stroke-linecap="round" stroke-linejoin="round"/>
<path d="M17 14.8485C17 15.0105 16.9639 15.177 16.8873 15.339C16.8107 15.501 16.7116 15.654 16.5809 15.798C16.36 16.041 16.1167 16.2165 15.8418 16.329C15.5714 16.4415 15.2784 16.5 14.9629 16.5C14.5033 16.5 14.012 16.392 13.4937 16.1715C12.9755 15.951 12.4572 15.654 11.9434 15.2805C11.4251 14.9025 10.9339 14.484 10.4652 14.0205C10.001 13.5525 9.58187 13.062 9.20781 12.549C8.83826 12.036 8.54081 11.523 8.32449 11.0145C8.10816 10.5015 8 10.011 8 9.543C8 9.237 8.05408 8.9445 8.16224 8.6745C8.27041 8.4 8.44166 8.148 8.68052 7.923C8.96895 7.6395 9.28443 7.5 9.61793 7.5C9.74412 7.5 9.87031 7.527 9.98297 7.581C10.1002 7.635 10.2038 7.716 10.2849 7.833L11.3305 9.3045C11.4116 9.417 11.4702 9.5205 11.5108 9.6195C11.5513 9.714 11.5739 9.8085 11.5739 9.894C11.5739 10.002 11.5423 10.11 11.4792 10.2135C11.4206 10.317 11.335 10.425 11.2268 10.533L10.8843 10.8885C10.8348 10.938 10.8122 10.9965 10.8122 11.0685C10.8122 11.1045 10.8167 11.136 10.8257 11.172C10.8393 11.208 10.8528 11.235 10.8618 11.262C10.9429 11.4105 11.0826 11.604 11.2809 11.838C11.4837 12.072 11.7 12.3105 11.9344 12.549C12.1778 12.7875 12.4121 13.008 12.651 13.2105C12.8853 13.4085 13.0791 13.5435 13.2323 13.6245C13.2549 13.6335 13.2819 13.647 13.3135 13.6605C13.3495 13.674 13.3856 13.6785 13.4261 13.6785C13.5028 13.6785 13.5613 13.6515 13.6109 13.602L13.9534 13.2645C14.0661 13.152 14.1743 13.0665 14.2779 13.0125C14.3816 12.9495 14.4852 12.918 14.5979 12.918C14.6835 12.918 14.7737 12.936 14.8728 12.9765C14.972 13.017 15.0756 13.0755 15.1883 13.152L16.68 14.2095C16.7972 14.2905 16.8783 14.385 16.9279 14.4975C16.973 14.61 17 14.7225 17 14.8485Z" stroke="#3B3B3B" stroke-width="1.5" stroke-miterlimit="10"/>
</svg>
